<svg version="1.1" id="Layer_1" xmlns="http://www.w3.org/2000/svg" xmlns:xlink="http://www.w3.org/1999/xlink" x="0px" y="0px"
	 width="100%" viewBox="0 0 1600 1600" enable-background="new 0 0 1600 1600" xml:space="preserve">
<path fill="#011240" opacity="1.000000" stroke="none" 
	d="
M923.000000,1601.000000 
	C615.333435,1601.000000 308.166840,1601.000000 1.000206,1601.000000 
	C1.000137,1067.666870 1.000137,534.333862 1.000069,1.000564 
	C534.332947,1.000376 1067.665894,1.000376 1600.999023,1.000188 
	C1600.999390,534.332764 1600.999390,1067.665527 1600.999756,1600.999146 
	C1375.166626,1601.000000 1149.333374,1601.000000 923.000000,1601.000000 
M745.989014,842.500000 
	C745.989136,859.830872 746.094666,877.162781 745.913391,894.491760 
	C745.869385,898.695679 746.936035,900.413086 751.490906,900.379761 
	C770.485046,900.240601 789.481628,900.455505 808.477417,900.512695 
	C815.233032,900.533081 815.243713,900.496887 815.245056,893.599426 
	C815.254395,846.272278 815.257080,798.945190 815.274536,751.618042 
	C815.275085,750.234497 815.415894,748.851013 815.545044,746.480835 
	C816.761536,748.299561 817.423462,749.214661 818.009521,750.175964 
	C847.095764,797.889404 876.243103,845.566040 905.159363,893.382385 
	C908.317139,898.604187 912.034302,900.740417 918.070618,900.623596 
	C933.394470,900.327026 948.727966,900.508606 964.057495,900.534729 
	C973.413452,900.550720 973.461121,900.580505 973.421753,890.929077 
	C973.329285,868.268188 973.091980,845.607544 973.082336,822.946716 
	C973.055664,760.288818 973.117004,697.630920 973.138855,634.973022 
	C973.141357,627.883057 973.127502,627.856384 965.948059,627.857056 
	C947.450623,627.858704 928.950928,628.046936 910.457153,627.797058 
	C905.476562,627.729736 903.832214,629.073853 903.907104,634.227112 
	C904.439270,670.877930 904.685059,707.532898 905.018982,744.186584 
	C905.034485,745.886597 905.020935,747.586792 905.020935,749.286926 
	C904.535522,749.426392 904.050110,749.565857 903.564697,749.705261 
	C902.564636,748.298523 901.479370,746.944214 900.577087,745.477417 
	C878.095764,708.931641 855.527039,672.438782 833.278564,635.751648 
	C829.768311,629.963318 825.863525,627.373230 818.912476,627.551147 
	C800.426636,628.024292 781.921753,627.755127 763.424438,627.777344 
	C757.798035,627.784058 752.171692,627.778381 745.989014,627.778381 
	C745.989014,699.290161 745.989014,770.395081 745.989014,842.500000 
M214.814667,626.500366 
	C214.813614,621.002625 214.688843,615.501160 214.853775,610.008423 
	C214.969162,606.165039 213.507080,604.784363 209.571640,604.824951 
	C191.579132,605.010559 173.581726,605.100647 155.591202,604.852600 
	C150.692444,604.785034 149.387604,606.388123 149.418304,611.122803 
	C149.601913,639.442932 149.466980,667.765015 149.509048,696.086304 
	C149.604843,760.551514 149.739471,825.016724 149.870590,889.481934 
	C149.874207,891.262756 150.017532,893.043335 150.109024,895.127380 
	C152.346970,895.246582 154.151520,895.419556 155.956726,895.426758 
	C172.617279,895.492981 189.277908,895.539673 205.938553,895.572693 
	C214.795059,895.590210 214.819763,895.572937 214.813187,886.474487 
	C214.790649,855.318176 214.749100,824.161926 214.715210,793.005615 
	C214.713287,791.236572 214.714981,789.467529 214.714981,787.311890 
	C216.399689,787.739441 217.544647,787.904053 218.593140,788.314880 
	C235.601059,794.977905 252.540390,801.823120 269.651917,808.207275 
	C272.430969,809.244141 276.336761,809.186218 279.078003,808.063049 
	C290.441650,803.407166 301.541931,798.111572 312.772369,793.126160 
	C318.622864,790.528931 324.542999,788.088501 331.130219,785.279358 
	C331.323364,788.554688 331.574188,790.844116 331.575928,793.133728 
	C331.599762,824.790527 331.583160,856.447327 331.592194,888.104126 
	C331.594299,895.411438 331.621490,895.410034 339.122955,895.431580 
	C355.783356,895.479492 372.443726,895.535400 389.104156,895.574768 
	C396.756195,895.592834 396.756256,895.578674 396.751648,887.843201 
	C396.715424,826.696411 396.674377,765.549622 396.645050,704.402832 
	C396.630341,673.749695 396.646667,643.096497 396.627136,612.443359 
	C396.622314,604.901123 396.583069,604.891907 389.308167,604.894592 
	C372.146912,604.901001 354.985657,604.914368 337.824402,604.930603 
	C331.385376,604.936707 331.386169,604.943909 331.405273,611.255188 
	C331.510071,645.906433 331.610382,680.557739 331.727386,715.208984 
	C331.735840,717.708374 331.996826,719.816345 328.697449,721.062805 
	C312.080231,727.340942 295.558807,733.876648 279.069824,740.486816 
	C275.264099,742.012451 271.831573,741.997681 268.034546,740.480286 
	C252.615707,734.318176 237.181396,728.183838 221.622223,722.389832 
	C216.203751,720.372070 214.296555,717.040344 214.351944,711.465881 
	C214.630066,683.478577 214.682770,655.489014 214.814667,626.500366 
M1078.821899,729.218445 
	C1072.006592,731.348022 1064.972412,732.952393 1058.410400,735.689331 
	C1000.452271,759.863159 990.824097,838.562622 1030.997314,873.568054 
	C1056.254639,895.576355 1084.024780,905.637207 1117.062134,896.675964 
	C1139.603516,890.561707 1156.796143,876.988464 1168.997925,857.088989 
	C1174.286621,848.463684 1181.153931,841.783508 1190.977173,838.402283 
	C1194.048828,837.345093 1196.817505,835.407776 1199.724731,833.873291 
	C1199.580566,833.329224 1199.436401,832.785217 1199.292236,832.241150 
	C1184.326782,832.241150 1169.354370,832.505676 1154.398804,832.120911 
	C1147.709961,831.948792 1143.809570,834.231628 1140.610352,840.255249 
	C1129.888428,860.442322 1105.695801,871.514343 1083.549683,867.050659 
	C1061.606689,862.628052 1042.860107,842.224304 1041.073608,820.819885 
	C1039.069458,796.807434 1053.056641,773.490479 1074.458374,765.167297 
	C1096.167725,756.724365 1122.802246,763.867981 1136.723145,781.994385 
	C1137.823853,783.427551 1138.141113,785.462341 1138.822510,787.217407 
	C1136.953613,787.634705 1135.084839,788.408630 1133.215698,788.410034 
	C1122.886475,788.417786 1112.554688,788.037476 1102.228638,788.168762 
	C1087.328979,788.358093 1079.113159,795.068726 1075.343506,809.405212 
	C1074.361450,813.140259 1074.882568,814.944641 1079.356567,814.920776 
	C1111.682129,814.748230 1144.008667,814.692200 1176.334595,814.759583 
	C1180.924683,814.769165 1181.963989,812.939453 1181.600098,808.690674 
	C1180.334717,793.921814 1175.714600,780.293884 1167.415771,768.122314 
	C1146.270020,737.109192 1117.050781,723.820251 1078.821899,729.218445 
M432.003418,831.506653 
	C433.551392,836.932983 434.546326,842.594299 436.736328,847.747864 
	C451.892792,883.414062 494.942963,905.911194 533.941772,898.372192 
	C558.896545,893.548096 578.415771,880.266052 591.969788,858.647217 
	C597.893372,849.198914 605.108276,841.543396 616.056519,837.972839 
	C618.795959,837.079407 621.245544,835.297302 623.828308,833.923584 
	C623.731079,833.492371 623.633789,833.061096 623.536560,832.629883 
	C621.797668,832.629883 620.058655,832.644104 618.319885,832.627563 
	C605.157043,832.502441 591.983093,832.650757 578.835938,832.127380 
	C571.989075,831.854858 567.934082,834.116516 564.608154,840.359619 
	C553.228210,861.720947 528.408386,870.954834 509.944244,867.504639 
	C486.117523,863.052307 467.957855,844.073792 465.179199,821.702087 
	C462.319763,798.679504 476.415131,774.302673 497.692291,765.473267 
	C519.313293,756.501221 546.536682,763.622009 560.852173,782.086792 
	C561.901367,783.440125 562.351013,785.258301 563.079346,786.860413 
	C561.277649,787.401184 559.477478,788.401062 557.674011,788.407043 
	C547.178162,788.442261 536.678040,788.017761 526.186035,788.178650 
	C511.204010,788.408325 502.510223,795.690735 499.245026,810.002930 
	C498.467560,813.410767 499.193420,815.090027 503.014069,814.896851 
	C506.671387,814.711914 510.344299,814.831055 514.010376,814.825317 
	C542.672302,814.780762 571.334595,814.663757 599.995911,814.770508 
	C604.651489,814.787842 606.518921,813.226868 605.629944,808.624512 
	C604.464478,802.590454 603.895813,796.370911 602.065979,790.546692 
	C589.089722,749.244751 547.202881,717.669434 496.394379,730.840820 
	C448.109344,743.358032 425.192505,787.114929 432.003418,831.506653 
M703.500427,926.520203 
	C521.343079,926.519836 339.185730,926.519470 157.028366,926.519714 
	C155.528610,926.519714 154.014816,926.405579 152.534241,926.576111 
	C151.620972,926.681274 150.017075,927.173462 149.988358,927.581055 
	C149.722321,931.356873 149.435822,935.191711 149.933472,938.905090 
	C150.023300,939.575439 153.664474,940.132507 155.666138,940.132751 
	C554.312622,940.186096 952.959106,940.184814 1351.605591,940.173706 
	C1353.352783,940.173645 1355.099976,940.006836 1356.920776,939.914124 
	C1357.017212,938.133972 1357.149658,936.982117 1357.131104,935.832642 
	C1356.957886,925.070374 1358.735962,926.541260 1347.967773,926.539856 
	C1133.478638,926.510925 918.989563,926.519287 703.500427,926.520203 
M1441.822754,684.342590 
	C1445.332031,671.092590 1448.841309,657.842590 1452.654663,643.444641 
	C1431.194214,649.215271 1410.978638,654.651184 1390.763184,660.087097 
	C1390.374268,660.763855 1389.985352,661.440613 1389.596436,662.117432 
	C1393.902588,665.682861 1398.208740,669.248352 1402.442017,672.753418 
	C1386.169922,691.567810 1267.163574,807.211487 1259.487427,811.477417 
	C1252.085693,803.902039 1244.431763,796.258179 1237.015625,788.390259 
	C1233.806152,784.985291 1230.185913,783.347778 1225.537598,783.453552 
	C1216.209229,783.665894 1206.876465,783.681885 1197.546875,783.851868 
	C1196.217163,783.876099 1194.894897,784.307739 1192.036499,784.831909 
	C1208.599854,800.874512 1224.097900,815.885254 1240.054077,831.339661 
	C1223.451782,846.997009 1207.688232,861.863403 1190.894653,877.701233 
	C1194.028442,878.130859 1195.598022,878.525146 1197.169434,878.532227 
	C1206.834961,878.575745 1216.502808,878.408325 1226.165527,878.571777 
	C1230.650757,878.647644 1234.170776,877.093201 1237.384033,874.089478 
	C1242.615845,869.198975 1248.001953,864.471985 1253.373779,859.733521 
	C1260.246582,853.671204 1260.253296,853.711182 1266.937256,860.330688 
	C1281.969604,875.218079 1297.052002,890.055054 1312.034790,904.991943 
	C1315.420776,908.367554 1319.172729,910.097534 1324.050415,909.959717 
	C1333.708740,909.686829 1343.376831,909.776550 1353.040039,909.650513 
	C1354.365845,909.633179 1355.686646,909.238220 1358.009155,908.851807 
	C1356.116943,906.480713 1355.054932,904.826416 1353.686890,903.484070 
	C1331.332275,881.549744 1308.930054,859.663940 1286.561279,837.744019 
	C1281.461426,832.746521 1281.532959,832.739197 1286.664795,827.702698 
	C1330.539307,784.644226 1374.415161,741.587036 1418.210815,698.448303 
	C1419.812378,696.870728 1420.586548,694.453064 1421.746460,692.426880 
	C1422.708374,692.667908 1423.670288,692.908875 1424.632324,693.149902 
	C1428.077026,697.381836 1431.521851,701.613831 1435.642578,706.676270 
	C1437.890015,698.531860 1439.740234,691.827148 1441.822754,684.342590 
M640.342224,753.499939 
	C640.342163,756.830933 640.346680,760.161865 640.341492,763.492859 
	C640.274597,806.794189 640.197266,850.095520 640.148071,893.396851 
	C640.140503,900.068970 640.233093,900.151550 646.771240,900.232117 
	C654.930603,900.332581 663.091064,900.335876 671.250977,900.398376 
	C679.895935,900.464539 679.906433,900.473328 679.899292,891.606812 
	C679.878113,865.126038 679.808960,838.645264 679.837830,812.164551 
	C679.851685,799.445740 684.156616,788.400208 693.167419,779.290833 
	C702.674988,769.679138 714.427368,765.190002 727.700989,764.682129 
	C732.932617,764.481934 734.475464,762.356689 734.297913,757.342712 
	C733.950562,747.528076 733.969421,737.690857 734.183899,727.870544 
	C734.274963,723.698547 732.625854,722.259155 728.689270,722.241455 
	C712.971069,722.170654 698.335205,725.611145 685.420166,735.019714 
	C684.080750,735.995483 682.460083,736.585266 679.957092,737.876587 
	C679.957092,733.939880 679.831360,731.154663 679.987732,728.385376 
	C680.200623,724.613953 678.775818,722.942261 674.800415,723.011475 
	C664.977417,723.182495 655.147705,723.170959 645.324341,723.010376 
	C641.623901,722.949890 640.265686,724.430603 640.315735,728.018188 
	C640.429626,736.177307 640.345886,744.339172 640.342224,753.499939 
M740.527344,965.118958 
	C745.019836,965.117004 749.542297,965.433044 753.995239,965.012207 
	C757.543152,964.676880 759.164612,965.887329 759.058411,969.669312 
	C762.260498,968.990784 764.953247,968.420227 767.549683,967.870056 
	C767.514404,960.799805 765.771912,958.280029 759.976501,958.121887 
	C749.668457,957.840515 739.345154,957.911377 729.032837,958.094055 
	C724.828979,958.168518 721.425537,960.093933 721.320679,964.856506 
	C721.130310,973.501160 721.085083,982.158752 721.355469,990.799194 
	C721.471497,994.505615 723.710022,997.011963 727.785461,997.024658 
	C738.931946,997.059326 750.079041,997.088074 761.224976,997.003296 
	C764.930176,996.975159 767.282349,994.851257 767.456421,991.185913 
	C767.712952,985.784180 767.522644,980.361267 767.522644,974.873413 
	C759.465454,974.873413 751.772705,974.873413 744.113342,974.873413 
	C744.113342,977.181641 744.113342,979.100281 744.113342,981.446777 
	C748.989380,981.446777 753.584534,981.446777 758.335571,981.446777 
	C758.335571,984.419861 758.335571,986.953430 758.335571,989.523682 
	C748.925171,989.523682 739.872498,989.523682 730.806458,989.523682 
	C730.806458,981.283203 730.806458,973.383972 730.806458,965.118286 
	C733.934326,965.118286 736.735046,965.118286 740.527344,965.118958 
M922.503906,997.118408 
	C928.996155,997.100281 935.530090,997.502563 941.961121,996.866028 
	C944.700928,996.594849 948.199829,994.781311 949.636230,992.558716 
	C952.261108,988.497192 949.877380,980.511108 946.339478,977.332153 
	C947.563660,975.588257 949.385193,974.038086 949.853394,972.151917 
	C952.353149,962.082275 949.054688,958.007690 938.804077,957.999146 
	C935.308105,957.996277 931.812195,957.999878 928.316223,957.999939 
	C921.558044,958.000183 914.799866,958.000061 908.239197,958.000061 
	C908.239197,971.416016 908.239197,984.146729 908.239197,997.118408 
	C912.883850,997.118408 917.195251,997.118408 922.503906,997.118408 
M1340.414673,965.115051 
	C1342.889038,965.115051 1345.363281,965.115051 1347.897217,965.115051 
	C1348.214844,966.646545 1348.473267,967.892822 1348.819702,969.563354 
	C1351.727783,968.972412 1354.397095,968.430054 1356.956665,967.909912 
	C1357.051758,960.602905 1355.481079,958.276062 1349.510132,958.118958 
	C1339.195679,957.847595 1328.865967,957.916931 1318.548462,958.127441 
	C1314.618774,958.207642 1311.208374,959.860718 1311.139648,964.537720 
	C1311.010010,973.357361 1310.996582,982.183167 1311.183350,991.001160 
	C1311.267212,994.959534 1313.752930,997.023315 1317.702271,997.037476 
	C1328.689575,997.076965 1339.677246,997.079468 1350.664429,997.024353 
	C1354.677002,997.004211 1356.885376,994.786560 1356.993286,990.833740 
	C1357.137817,985.545471 1357.029053,980.250244 1357.029053,974.774170 
	C1349.153076,974.774170 1341.587891,974.774170 1333.854980,974.774170 
	C1333.854980,976.993469 1333.854980,978.919617 1333.854980,981.274292 
	C1338.652344,981.274292 1343.241455,981.274292 1348.089844,981.274292 
	C1348.089844,984.270630 1348.089844,986.837708 1348.089844,989.530334 
	C1338.610596,989.530334 1329.404785,989.530334 1320.279297,989.530334 
	C1320.279297,981.274780 1320.279297,973.355713 1320.279297,965.115234 
	C1326.850098,965.115234 1333.144531,965.115234 1340.414673,965.115051 
M280.918671,989.425964 
	C280.918671,983.429321 280.918671,977.432617 280.918671,970.496765 
	C287.181274,978.717712 292.660309,985.909973 298.638947,993.758118 
	C304.588348,985.947021 309.912537,978.956787 316.154114,970.762085 
	C316.154114,980.520386 316.154114,988.738403 316.154114,996.817383 
	C319.243256,996.817383 321.827820,996.817383 324.479156,996.817383 
	C324.479156,983.758789 324.479156,971.016418 324.479156,958.372192 
	C319.697113,957.140625 316.514771,958.371033 313.758514,962.479126 
	C309.380493,969.004395 304.296051,975.055664 299.279510,981.609070 
	C294.102264,974.964417 289.061066,968.987427 284.607117,962.600830 
	C281.739166,958.488281 278.483917,956.907959 273.501221,958.437012 
	C273.501221,971.107544 273.501221,983.851990 273.501221,996.861206 
	C275.922882,996.861206 278.165985,996.861206 280.919495,996.861206 
	C280.919495,994.643433 280.919495,992.523621 280.918671,989.425964 
M405.646393,957.998291 
	C404.413239,958.779785 402.120880,959.541199 402.105682,960.345642 
	C401.876526,972.460571 401.946899,984.581116 401.946899,996.874756 
	C405.103027,996.874756 407.834991,996.874756 411.073456,996.874756 
	C411.073456,992.074524 411.073456,987.493591 411.073456,983.234131 
	C416.779327,981.459473 420.945374,982.960327 424.410919,987.070923 
	C426.009430,988.966858 428.337006,990.285278 429.779724,992.268738 
	C434.439697,998.675110 440.752716,997.273376 447.767853,996.751587 
	C441.989227,991.962769 436.845795,987.700317 431.230164,983.046509 
	C444.218964,981.578674 444.218933,981.578674 444.240967,969.346497 
	C444.241241,969.179932 444.242035,969.013306 444.242218,968.846741 
	C444.252411,959.632385 442.669098,958.010803 433.605347,958.001709 
	C424.609650,957.992615 415.613922,957.999695 405.646393,957.998291 
M1181.059814,958.083313 
	C1171.759155,958.083313 1162.458496,958.083313 1153.087158,958.083313 
	C1153.087158,971.141235 1153.087158,984.004883 1153.087158,997.017029 
	C1162.873657,997.017029 1172.349976,997.306396 1181.801880,996.948059 
	C1195.364868,996.433777 1203.369141,984.481079 1199.524902,971.319336 
	C1196.925781,962.420593 1190.053589,959.554626 1181.059814,958.083313 
M983.968384,982.599426 
	C987.900208,985.812378 992.457886,988.510620 995.620605,992.356079 
	C1000.648682,998.469666 1006.690369,997.231323 1013.755005,996.792236 
	C1007.918030,991.975281 1002.765015,987.722717 997.111511,983.057190 
	C1010.157227,981.572876 1010.157837,981.572876 1010.151550,969.310669 
	C1010.150879,967.978149 1010.107483,966.644958 1010.136597,965.313232 
	C1010.236572,960.751526 1007.555420,958.273865 1003.467346,958.178589 
	C991.705444,957.904114 979.932922,958.081726 968.155640,958.081726 
	C968.155640,971.300720 968.155640,984.045288 968.155640,996.829834 
	C971.153870,996.829834 973.886841,996.829834 977.110474,996.829834 
	C977.110474,991.981689 977.110474,987.411804 977.110474,982.590759 
	C979.434143,982.590759 981.257507,982.590759 983.968384,982.599426 
M860.187378,997.114014 
	C861.591492,997.114014 862.995605,997.114014 865.601074,997.114014 
	C861.078979,993.179504 857.528015,990.089966 853.823608,986.866943 
	C856.871460,984.222595 859.557251,981.892395 862.536743,979.307373 
	C860.478271,977.574829 858.893616,976.241089 857.298645,974.898682 
	C854.096802,977.515625 851.183044,979.897095 848.124023,982.397278 
	C841.844849,976.504333 834.702026,972.188354 829.535095,965.813965 
	C829.804260,965.392944 830.073364,964.971863 830.342529,964.550842 
	C832.314026,964.550842 834.285583,964.550903 836.257141,964.550903 
	C838.211426,964.550903 840.165771,964.550842 842.137390,964.550842 
	C842.493408,966.488525 842.751587,967.894104 843.060608,969.575989 
	C845.393738,969.235168 847.437622,968.936584 849.345032,968.657959 
	C850.178345,960.595764 848.252869,958.225525 840.957947,958.018555 
	C837.131409,957.909973 833.268982,957.760925 829.474060,958.141724 
	C823.205261,958.770752 820.236389,964.479370 822.992554,970.192261 
	C823.549133,971.345825 824.407898,972.353455 825.203491,973.542175 
	C822.061218,975.491272 819.018555,977.204102 816.168030,979.192444 
	C812.856445,981.502197 811.729858,987.436707 813.303040,992.433960 
	C814.632690,996.657654 817.928833,997.177124 821.637207,997.133301 
	C825.467834,997.087952 829.311096,996.938049 833.127930,997.172913 
	C838.680908,997.514526 843.805237,996.966614 846.314087,993.308105 
	C851.210327,994.742249 855.269958,995.931396 860.187378,997.114014 
M689.016541,991.488281 
	C692.761047,994.465759 695.889771,998.987427 701.860962,996.617859 
	C701.860962,983.844849 701.860962,971.112305 701.860962,958.391907 
	C699.094055,958.391907 696.569885,958.391907 693.699829,958.391907 
	C693.699829,967.137817 693.699829,975.487610 693.699829,984.253601 
	C684.126648,976.227478 675.090271,968.411987 665.746643,960.982849 
	C663.354431,959.080750 659.991333,958.399780 656.402710,956.871887 
	C656.402710,971.256775 656.402710,983.989136 656.402710,996.916260 
	C659.098145,996.916260 661.542419,996.916260 664.529602,996.916260 
	C664.529602,988.470703 664.529602,980.152527 664.529602,970.894165 
	C673.026794,978.058838 680.734497,984.557800 689.016541,991.488281 
M1087.060669,996.249939 
	C1089.653442,996.599670 1092.246216,996.949402 1095.387695,997.373108 
	C1095.387695,988.075378 1095.387695,979.763794 1095.387695,971.036682 
	C1104.896973,979.046997 1114.028687,986.522827 1122.881836,994.314880 
	C1125.964600,997.028137 1129.003296,997.636414 1132.625366,996.788086 
	C1132.625366,983.688660 1132.625366,970.958557 1132.625366,958.213745 
	C1129.898193,958.213745 1127.460449,958.213745 1124.588989,958.213745 
	C1124.588989,966.894531 1124.588989,975.367737 1124.588989,984.437866 
	C1114.887451,976.307983 1105.852539,968.509399 1096.526001,961.076965 
	C1094.120728,959.160095 1090.798950,958.393250 1087.002441,956.698181 
	C1087.002441,970.719238 1087.002441,983.001587 1087.060669,996.249939 
M1266.995483,970.518250 
	C1263.163086,967.329407 1259.508789,963.885132 1255.433594,961.044800 
	C1252.875488,959.261902 1249.685303,958.385925 1246.070679,956.790527 
	C1246.070679,971.202332 1246.070679,983.934814 1246.070679,996.769531 
	C1248.824341,996.769531 1251.349731,996.769531 1254.288574,996.769531 
	C1254.288574,988.081360 1254.288574,979.733643 1254.288574,970.972046 
	C1263.760132,978.953064 1272.876465,986.424683 1281.722412,994.203674 
	C1284.783203,996.895325 1287.808105,997.786194 1291.682739,996.687073 
	C1291.682739,983.837219 1291.682739,971.110779 1291.682739,958.236023 
	C1289.010986,958.236023 1286.601685,958.236023 1283.881592,958.236023 
	C1283.881592,967.012695 1283.881592,975.562439 1283.881592,984.697876 
	C1278.108643,979.872192 1272.809082,975.442200 1266.995483,970.518250 
M474.141388,972.702209 
	C473.435272,972.251038 472.132935,971.821106 472.115936,971.345398 
	C471.958740,966.935669 472.023041,962.517944 472.023041,958.262268 
	C468.526337,958.262268 465.762573,958.262268 462.932495,958.262268 
	C462.932495,971.279785 462.932495,984.033325 462.932495,996.745972 
	C466.060608,996.745972 468.949524,996.745972 472.247131,996.745972 
	C472.247131,991.342224 472.247131,986.303223 472.247131,980.468201 
	C478.759277,985.256653 484.887421,989.232422 490.380310,993.948059 
	C496.084717,998.845459 502.211334,996.566772 508.373047,996.123718 
	C499.382965,989.691528 490.392883,983.259399 481.054321,976.577881 
	C489.756531,970.357239 497.906555,964.531250 506.527557,958.368652 
	C494.578369,957.320190 494.582581,957.325806 486.277679,963.585144 
	C482.429260,966.485657 478.561066,969.359924 474.141388,972.702209 
M522.858582,984.493103 
	C522.858582,988.597107 522.858582,992.701050 522.858582,996.767334 
	C536.644531,996.767334 549.872009,996.767334 562.902954,996.767334 
	C562.902954,994.327209 562.902954,992.243408 562.902954,989.757874 
	C552.512451,989.757874 542.420959,989.757874 532.152954,989.757874 
	C532.152954,986.429993 532.152954,983.516541 532.152954,980.154663 
	C538.123413,980.154663 543.878540,980.154663 549.789795,980.154663 
	C549.789795,977.794617 549.789795,975.885071 549.789795,973.540527 
	C543.832458,973.540527 538.071045,973.540527 532.162720,973.540527 
	C532.162720,970.521484 532.162720,967.941589 532.162720,964.867310 
	C542.470947,964.867310 552.541748,964.867310 562.666504,964.867310 
	C562.666504,962.320801 562.666504,960.278687 562.666504,958.291504 
	C549.264709,958.291504 536.186035,958.291504 522.858582,958.291504 
	C522.858582,966.883118 522.858582,975.188660 522.858582,984.493103 
M357.012299,960.192322 
	C350.198364,972.279724 343.384399,984.367065 336.512573,996.557190 
	C342.326752,998.196777 346.469696,997.377563 348.618713,991.393982 
	C349.037109,990.229004 351.270966,989.085632 352.711884,989.027100 
	C359.014893,988.770874 365.340210,988.771973 371.643372,989.026733 
	C373.110901,989.086060 375.087189,990.143372 375.867126,991.358948 
	C379.994659,997.791931 380.946625,998.280029 389.017273,996.295593 
	C382.386505,984.753418 375.789520,973.281860 369.205475,961.802979 
	C366.679932,957.399841 361.997162,956.473694 357.012299,960.192322 
M1070.786499,990.686829 
	C1065.510376,981.478210 1060.217285,972.279236 1054.968018,963.055359 
	C1053.332153,960.180847 1052.034668,957.725159 1047.685669,957.768616 
	C1043.433105,957.811035 1041.967651,959.940552 1040.394287,962.996460 
	C1038.573608,966.532959 1036.465454,969.920715 1034.513428,973.390686 
	C1030.175415,981.101501 1025.857178,988.823364 1021.530762,996.540710 
	C1021.841797,997.024353 1022.152832,997.507996 1022.463867,997.991577 
	C1025.453735,996.988159 1030.165894,996.800598 1031.102295,994.824219 
	C1033.649048,989.448303 1037.185791,988.363281 1042.475098,988.824158 
	C1047.257935,989.240967 1052.113770,988.758789 1056.919189,989.015503 
	C1058.237793,989.085876 1059.983154,990.069031 1060.693237,991.173218 
	C1065.030151,997.916138 1064.949463,997.968018 1073.990967,996.578247 
	C1072.988892,994.775269 1072.042236,993.072021 1070.786499,990.686829 
M176.483002,988.914856 
	C179.477264,988.913879 182.490524,988.717529 185.456604,989.006165 
	C186.679306,989.125183 188.549026,990.052551 188.848373,991.010864 
	C191.041702,998.032288 196.217957,997.682312 202.184967,996.725647 
	C201.496033,995.363037 200.967850,994.193604 200.334244,993.084473 
	C194.571625,982.996460 188.768433,972.931519 183.029404,962.830139 
	C181.467285,960.080566 180.281754,957.750977 176.110641,957.772278 
	C171.935379,957.793640 170.216721,959.596008 168.746170,962.837769 
	C167.791260,964.942932 166.439590,966.866028 165.298706,968.889221 
	C160.115280,978.081421 154.943558,987.280212 149.517838,996.920410 
	C152.996826,996.920410 155.775269,996.920410 159.072235,996.920410 
	C160.139618,988.843506 165.880966,988.121094 172.506653,988.894470 
	C173.491455,989.009399 174.500977,988.912354 176.483002,988.914856 
M582.408875,965.113403 
	C584.503479,965.113403 586.598083,965.113403 589.113037,965.113403 
	C589.113037,976.111206 589.113037,986.502808 589.113037,996.820923 
	C592.295776,996.820923 595.037048,996.820923 598.259521,996.820923 
	C598.259521,986.163269 598.259521,975.789246 598.259521,964.937134 
	C604.476257,964.937134 610.206482,964.937134 615.759705,964.937134 
	C615.759705,962.368713 615.759705,960.301025 615.759705,958.283386 
	C600.727234,958.283386 586.006531,958.283386 571.274658,958.283386 
	C571.274658,960.628540 571.274658,962.688416 571.274658,965.113831 
	C574.845093,965.113831 578.141113,965.113831 582.408875,965.113403 
M636.375793,963.730286 
	C636.375793,961.928772 636.375793,960.127197 636.375793,958.388550 
	C633.088867,958.388550 630.218933,958.388550 627.518799,958.388550 
	C627.518799,971.480957 627.518799,984.174438 627.518799,996.806091 
	C630.606873,996.806091 633.345581,996.806091 636.375366,996.806091 
	C636.375366,985.889648 636.375366,975.283875 636.375793,963.730286 
M224.221451,960.067993 
	C221.987000,955.681458 218.396301,959.035950 215.348877,958.030640 
	C215.348877,971.245178 215.348877,983.952820 215.348877,996.885254 
	C218.336716,996.885254 221.094543,996.885254 224.229065,996.885254 
	C224.229065,984.830444 224.229065,972.902771 224.221451,960.067993 
M1226.005737,965.568726 
	C1226.005737,963.142578 1226.005737,960.716431 1226.005737,958.265381 
	C1222.707031,958.265381 1219.976440,958.265381 1217.289795,958.265381 
	C1217.289795,971.358643 1217.289795,984.189392 1217.289795,996.738647 
	C1220.379639,996.738647 1223.112183,996.738647 1226.005737,996.738647 
	C1226.005737,986.429077 1226.005737,976.489685 1226.005737,965.568726 
z"/>
<path fill="#FCFDFE" opacity="1.000000" stroke="none" 
	d="
M745.989014,842.000000 
	C745.989014,770.395081 745.989014,699.290161 745.989014,627.778381 
	C752.171692,627.778381 757.798035,627.784058 763.424438,627.777344 
	C781.921753,627.755127 800.426636,628.024292 818.912476,627.551147 
	C825.863525,627.373230 829.768311,629.963318 833.278564,635.751648 
	C855.527039,672.438782 878.095764,708.931641 900.577087,745.477417 
	C901.479370,746.944214 902.564636,748.298523 903.564697,749.705261 
	C904.050110,749.565857 904.535522,749.426392 905.020935,749.286926 
	C905.020935,747.586792 905.034485,745.886597 905.018982,744.186584 
	C904.685059,707.532898 904.439270,670.877930 903.907104,634.227112 
	C903.832214,629.073853 905.476562,627.729736 910.457153,627.797058 
	C928.950928,628.046936 947.450623,627.858704 965.948059,627.857056 
	C973.127502,627.856384 973.141357,627.883057 973.138855,634.973022 
	C973.117004,697.630920 973.055664,760.288818 973.082336,822.946716 
	C973.091980,845.607544 973.329285,868.268188 973.421753,890.929077 
	C973.461121,900.580505 973.413452,900.550720 964.057495,900.534729 
	C948.727966,900.508606 933.394470,900.327026 918.070618,900.623596 
	C912.034302,900.740417 908.317139,898.604187 905.159363,893.382385 
	C876.243103,845.566040 847.095764,797.889404 818.009521,750.175964 
	C817.423462,749.214661 816.761536,748.299561 815.545044,746.480835 
	C815.415894,748.851013 815.275085,750.234497 815.274536,751.618042 
	C815.257080,798.945190 815.254395,846.272278 815.245056,893.599426 
	C815.243713,900.496887 815.233032,900.533081 808.477417,900.512695 
	C789.481628,900.455505 770.485046,900.240601 751.490906,900.379761 
	C746.936035,900.413086 745.869385,898.695679 745.913391,894.491760 
	C746.094666,877.162781 745.989136,859.830872 745.989014,842.000000 
z"/>
<path fill="#FBFCFE" opacity="1.000000" stroke="none" 
	d="
M214.814667,627.000305 
	C214.682770,655.489014 214.630066,683.478577 214.351944,711.465881 
	C214.296555,717.040344 216.203751,720.372070 221.622223,722.389832 
	C237.181396,728.183838 252.615707,734.318176 268.034546,740.480286 
	C271.831573,741.997681 275.264099,742.012451 279.069824,740.486816 
	C295.558807,733.876648 312.080231,727.340942 328.697449,721.062805 
	C331.996826,719.816345 331.735840,717.708374 331.727386,715.208984 
	C331.610382,680.557739 331.510071,645.906433 331.405273,611.255188 
	C331.386169,604.943909 331.385376,604.936707 337.824402,604.930603 
	C354.985657,604.914368 372.146912,604.901001 389.308167,604.894592 
	C396.583069,604.891907 396.622314,604.901123 396.627136,612.443359 
	C396.646667,643.096497 396.630341,673.749695 396.645050,704.402832 
	C396.674377,765.549622 396.715424,826.696411 396.751648,887.843201 
	C396.756256,895.578674 396.756195,895.592834 389.104156,895.574768 
	C372.443726,895.535400 355.783356,895.479492 339.122955,895.431580 
	C331.621490,895.410034 331.594299,895.411438 331.592194,888.104126 
	C331.583160,856.447327 331.599762,824.790527 331.575928,793.133728 
	C331.574188,790.844116 331.323364,788.554688 331.130219,785.279358 
	C324.542999,788.088501 318.622864,790.528931 312.772369,793.126160 
	C301.541931,798.111572 290.441650,803.407166 279.078003,808.063049 
	C276.336761,809.186218 272.430969,809.244141 269.651917,808.207275 
	C252.540390,801.823120 235.601059,794.977905 218.593140,788.314880 
	C217.544647,787.904053 216.399689,787.739441 214.714981,787.311890 
	C214.714981,789.467529 214.713287,791.236572 214.715210,793.005615 
	C214.749100,824.161926 214.790649,855.318176 214.813187,886.474487 
	C214.819763,895.572937 214.795059,895.590210 205.938553,895.572693 
	C189.277908,895.539673 172.617279,895.492981 155.956726,895.426758 
	C154.151520,895.419556 152.346970,895.246582 150.109024,895.127380 
	C150.017532,893.043335 149.874207,891.262756 149.870590,889.481934 
	C149.739471,825.016724 149.604843,760.551514 149.509048,696.086304 
	C149.466980,667.765015 149.601913,639.442932 149.418304,611.122803 
	C149.387604,606.388123 150.692444,604.785034 155.591202,604.852600 
	C173.581726,605.100647 191.579132,605.010559 209.571640,604.824951 
	C213.507080,604.784363 214.969162,606.165039 214.853775,610.008423 
	C214.688843,615.501160 214.813614,621.002625 214.814667,627.000305 
z"/>
<path fill="#F4A51E" opacity="1.000000" stroke="none" 
	d="
M1079.247803,729.141541 
	C1117.050781,723.820251 1146.270020,737.109192 1167.415771,768.122314 
	C1175.714600,780.293884 1180.334717,793.921814 1181.600098,808.690674 
	C1181.963989,812.939453 1180.924683,814.769165 1176.334595,814.759583 
	C1144.008667,814.692200 1111.682129,814.748230 1079.356567,814.920776 
	C1074.882568,814.944641 1074.361450,813.140259 1075.343506,809.405212 
	C1079.113159,795.068726 1087.328979,788.358093 1102.228638,788.168762 
	C1112.554688,788.037476 1122.886475,788.417786 1133.215698,788.410034 
	C1135.084839,788.408630 1136.953613,787.634705 1138.822510,787.217407 
	C1138.141113,785.462341 1137.823853,783.427551 1136.723145,781.994385 
	C1122.802246,763.867981 1096.167725,756.724365 1074.458374,765.167297 
	C1053.056641,773.490479 1039.069458,796.807434 1041.073608,820.819885 
	C1042.860107,842.224304 1061.606689,862.628052 1083.549683,867.050659 
	C1105.695801,871.514343 1129.888428,860.442322 1140.610352,840.255249 
	C1143.809570,834.231628 1147.709961,831.948792 1154.398804,832.120911 
	C1169.354370,832.505676 1184.326782,832.241150 1199.292236,832.241150 
	C1199.436401,832.785217 1199.580566,833.329224 1199.724731,833.873291 
	C1196.817505,835.407776 1194.048828,837.345093 1190.977173,838.402283 
	C1181.153931,841.783508 1174.286621,848.463684 1168.997925,857.088989 
	C1156.796143,876.988464 1139.603516,890.561707 1117.062134,896.675964 
	C1084.024780,905.637207 1056.254639,895.576355 1030.997314,873.568054 
	C990.824097,838.562622 1000.452271,759.863159 1058.410400,735.689331 
	C1064.972412,732.952393 1072.006592,731.348022 1079.247803,729.141541 
z"/>
<path fill="#F4A51E" opacity="1.000000" stroke="none" 
	d="
M431.942993,831.074219 
	C425.192505,787.114929 448.109344,743.358032 496.394379,730.840820 
	C547.202881,717.669434 589.089722,749.244751 602.065979,790.546692 
	C603.895813,796.370911 604.464478,802.590454 605.629944,808.624512 
	C606.518921,813.226868 604.651489,814.787842 599.995911,814.770508 
	C571.334595,814.663757 542.672302,814.780762 514.010376,814.825317 
	C510.344299,814.831055 506.671387,814.711914 503.014069,814.896851 
	C499.193420,815.090027 498.467560,813.410767 499.245026,810.002930 
	C502.510223,795.690735 511.204010,788.408325 526.186035,788.178650 
	C536.678040,788.017761 547.178162,788.442261 557.674011,788.407043 
	C559.477478,788.401062 561.277649,787.401184 563.079346,786.860413 
	C562.351013,785.258301 561.901367,783.440125 560.852173,782.086792 
	C546.536682,763.622009 519.313293,756.501221 497.692291,765.473267 
	C476.415131,774.302673 462.319763,798.679504 465.179199,821.702087 
	C467.957855,844.073792 486.117523,863.052307 509.944244,867.504639 
	C528.408386,870.954834 553.228210,861.720947 564.608154,840.359619 
	C567.934082,834.116516 571.989075,831.854858 578.835938,832.127380 
	C591.983093,832.650757 605.157043,832.502441 618.319885,832.627563 
	C620.058655,832.644104 621.797668,832.629883 623.536560,832.629883 
	C623.633789,833.061096 623.731079,833.492371 623.828308,833.923584 
	C621.245544,835.297302 618.795959,837.079407 616.056519,837.972839 
	C605.108276,841.543396 597.893372,849.198914 591.969788,858.647217 
	C578.415771,880.266052 558.896545,893.548096 533.941772,898.372192 
	C494.942963,905.911194 451.892792,883.414062 436.736328,847.747864 
	C434.546326,842.594299 433.551392,836.932983 431.942993,831.074219 
z"/>
<path fill="#FCFDFF" opacity="1.000000" stroke="none" 
	d="
M704.000427,926.520142 
	C918.989563,926.519287 1133.478638,926.510925 1347.967773,926.539856 
	C1358.735962,926.541260 1356.957886,925.070374 1357.131104,935.832642 
	C1357.149658,936.982117 1357.017212,938.133972 1356.920776,939.914124 
	C1355.099976,940.006836 1353.352783,940.173645 1351.605591,940.173706 
	C952.959106,940.184814 554.312622,940.186096 155.666138,940.132751 
	C153.664474,940.132507 150.023300,939.575439 149.933472,938.905090 
	C149.435822,935.191711 149.722321,931.356873 149.988358,927.581055 
	C150.017075,927.173462 151.620972,926.681274 152.534241,926.576111 
	C154.014816,926.405579 155.528610,926.519714 157.028366,926.519714 
	C339.185730,926.519470 521.343079,926.519836 704.000427,926.520142 
z"/>
<path fill="#F4A61F" opacity="1.000000" stroke="none" 
	d="
M1441.706543,684.732544 
	C1439.740234,691.827148 1437.890015,698.531860 1435.642578,706.676270 
	C1431.521851,701.613831 1428.077026,697.381836 1424.632324,693.149902 
	C1423.670288,692.908875 1422.708374,692.667908 1421.746460,692.426880 
	C1420.586548,694.453064 1419.812378,696.870728 1418.210815,698.448303 
	C1374.415161,741.587036 1330.539307,784.644226 1286.664795,827.702698 
	C1281.532959,832.739197 1281.461426,832.746521 1286.561279,837.744019 
	C1308.930054,859.663940 1331.332275,881.549744 1353.686890,903.484070 
	C1355.054932,904.826416 1356.116943,906.480713 1358.009155,908.851807 
	C1355.686646,909.238220 1354.365845,909.633179 1353.040039,909.650513 
	C1343.376831,909.776550 1333.708740,909.686829 1324.050415,909.959717 
	C1319.172729,910.097534 1315.420776,908.367554 1312.034790,904.991943 
	C1297.052002,890.055054 1281.969604,875.218079 1266.937256,860.330688 
	C1260.253296,853.711182 1260.246582,853.671204 1253.373779,859.733521 
	C1248.001953,864.471985 1242.615845,869.198975 1237.384033,874.089478 
	C1234.170776,877.093201 1230.650757,878.647644 1226.165527,878.571777 
	C1216.502808,878.408325 1206.834961,878.575745 1197.169434,878.532227 
	C1195.598022,878.525146 1194.028442,878.130859 1190.894653,877.701233 
	C1207.688232,861.863403 1223.451782,846.997009 1240.054077,831.339661 
	C1224.097900,815.885254 1208.599854,800.874512 1192.036499,784.831909 
	C1194.894897,784.307739 1196.217163,783.876099 1197.546875,783.851868 
	C1206.876465,783.681885 1216.209229,783.665894 1225.537598,783.453552 
	C1230.185913,783.347778 1233.806152,784.985291 1237.015625,788.390259 
	C1244.431763,796.258179 1252.085693,803.902039 1259.487427,811.477417 
	C1267.163574,807.211487 1386.169922,691.567810 1402.442017,672.753418 
	C1398.208740,669.248352 1393.902588,665.682861 1389.596436,662.117432 
	C1389.985352,661.440613 1390.374268,660.763855 1390.763184,660.087097 
	C1410.978638,654.651184 1431.194214,649.215271 1452.654663,643.444641 
	C1448.841309,657.842590 1445.332031,671.092590 1441.706543,684.732544 
z"/>
<path fill="#F4A51E" opacity="1.000000" stroke="none" 
	d="
M640.342346,752.999878 
	C640.345886,744.339172 640.429626,736.177307 640.315735,728.018188 
	C640.265686,724.430603 641.623901,722.949890 645.324341,723.010376 
	C655.147705,723.170959 664.977417,723.182495 674.800415,723.011475 
	C678.775818,722.942261 680.200623,724.613953 679.987732,728.385376 
	C679.831360,731.154663 679.957092,733.939880 679.957092,737.876587 
	C682.460083,736.585266 684.080750,735.995483 685.420166,735.019714 
	C698.335205,725.611145 712.971069,722.170654 728.689270,722.241455 
	C732.625854,722.259155 734.274963,723.698547 734.183899,727.870544 
	C733.969421,737.690857 733.950562,747.528076 734.297913,757.342712 
	C734.475464,762.356689 732.932617,764.481934 727.700989,764.682129 
	C714.427368,765.190002 702.674988,769.679138 693.167419,779.290833 
	C684.156616,788.400208 679.851685,799.445740 679.837830,812.164551 
	C679.808960,838.645264 679.878113,865.126038 679.899292,891.606812 
	C679.906433,900.473328 679.895935,900.464539 671.250977,900.398376 
	C663.091064,900.335876 654.930603,900.332581 646.771240,900.232117 
	C640.233093,900.151550 640.140503,900.068970 640.148071,893.396851 
	C640.197266,850.095520 640.274597,806.794189 640.341492,763.492859 
	C640.346680,760.161865 640.342163,756.830933 640.342346,752.999878 
z"/>
<path fill="#F5F9FB" opacity="1.000000" stroke="none" 
	d="
M740.031616,965.118652 
	C736.735046,965.118286 733.934326,965.118286 730.806458,965.118286 
	C730.806458,973.383972 730.806458,981.283203 730.806458,989.523682 
	C739.872498,989.523682 748.925171,989.523682 758.335571,989.523682 
	C758.335571,986.953430 758.335571,984.419861 758.335571,981.446777 
	C753.584534,981.446777 748.989380,981.446777 744.113342,981.446777 
	C744.113342,979.100281 744.113342,977.181641 744.113342,974.873413 
	C751.772705,974.873413 759.465454,974.873413 767.522644,974.873413 
	C767.522644,980.361267 767.712952,985.784180 767.456421,991.185913 
	C767.282349,994.851257 764.930176,996.975159 761.224976,997.003296 
	C750.079041,997.088074 738.931946,997.059326 727.785461,997.024658 
	C723.710022,997.011963 721.471497,994.505615 721.355469,990.799194 
	C721.085083,982.158752 721.130310,973.501160 721.320679,964.856506 
	C721.425537,960.093933 724.828979,958.168518 729.032837,958.094055 
	C739.345154,957.911377 749.668457,957.840515 759.976501,958.121887 
	C765.771912,958.280029 767.514404,960.799805 767.549683,967.870056 
	C764.953247,968.420227 762.260498,968.990784 759.058411,969.669312 
	C759.164612,965.887329 757.543152,964.676880 753.995239,965.012207 
	C749.542297,965.433044 745.019836,965.117004 740.031616,965.118652 
z"/>
<path fill="#F5F9FB" opacity="1.000000" stroke="none" 
	d="
M922.005249,997.118408 
	C917.195251,997.118408 912.883850,997.118408 908.239197,997.118408 
	C908.239197,984.146729 908.239197,971.416016 908.239197,958.000061 
	C914.799866,958.000061 921.558044,958.000183 928.316223,957.999939 
	C931.812195,957.999878 935.308105,957.996277 938.804077,957.999146 
	C949.054688,958.007690 952.353149,962.082275 949.853394,972.151917 
	C949.385193,974.038086 947.563660,975.588257 946.339478,977.332153 
	C949.877380,980.511108 952.261108,988.497192 949.636230,992.558716 
	C948.199829,994.781311 944.700928,996.594849 941.961121,996.866028 
	C935.530090,997.502563 928.996155,997.100281 922.005249,997.118408 
M936.098389,980.209473 
	C929.841187,980.209473 923.583923,980.209473 917.261475,980.209473 
	C917.261475,983.761353 917.261475,986.793152 917.261475,990.017151 
	C923.879822,990.017151 930.169373,990.016296 936.458984,990.017639 
	C939.160522,990.018188 941.868286,990.320618 942.053162,986.253357 
	C942.224426,982.484436 941.355408,980.005981 936.098389,980.209473 
M930.438477,973.966248 
	C932.932068,973.962585 935.426392,973.996277 937.919067,973.945496 
	C940.938293,973.883911 941.803833,972.053467 941.819885,969.320374 
	C941.835571,966.679016 941.370483,964.682373 938.129578,964.695374 
	C931.201660,964.723083 924.273560,964.703796 917.250000,964.703796 
	C917.250000,967.970642 917.250000,970.847107 917.250000,973.966309 
	C921.528503,973.966309 925.495422,973.966309 930.438477,973.966248 
z"/>
<path fill="#F7FBFD" opacity="1.000000" stroke="none" 
	d="
M1339.926758,965.115112 
	C1333.144531,965.115234 1326.850098,965.115234 1320.279297,965.115234 
	C1320.279297,973.355713 1320.279297,981.274780 1320.279297,989.530334 
	C1329.404785,989.530334 1338.610596,989.530334 1348.089844,989.530334 
	C1348.089844,986.837708 1348.089844,984.270630 1348.089844,981.274292 
	C1343.241455,981.274292 1338.652344,981.274292 1333.854980,981.274292 
	C1333.854980,978.919617 1333.854980,976.993469 1333.854980,974.774170 
	C1341.587891,974.774170 1349.153076,974.774170 1357.029053,974.774170 
	C1357.029053,980.250244 1357.137817,985.545471 1356.993286,990.833740 
	C1356.885376,994.786560 1354.677002,997.004211 1350.664429,997.024353 
	C1339.677246,997.079468 1328.689575,997.076965 1317.702271,997.037476 
	C1313.752930,997.023315 1311.267212,994.959534 1311.183350,991.001160 
	C1310.996582,982.183167 1311.010010,973.357361 1311.139648,964.537720 
	C1311.208374,959.860718 1314.618774,958.207642 1318.548462,958.127441 
	C1328.865967,957.916931 1339.195679,957.847595 1349.510132,958.118958 
	C1355.481079,958.276062 1357.051758,960.602905 1356.956665,967.909912 
	C1354.397095,968.430054 1351.727783,968.972412 1348.819702,969.563354 
	C1348.473267,967.892822 1348.214844,966.646545 1347.897217,965.115051 
	C1345.363281,965.115051 1342.889038,965.115051 1339.926758,965.115112 
z"/>
<path fill="#EEF2F6" opacity="1.000000" stroke="none" 
	d="
M280.919067,989.914917 
	C280.919495,992.523621 280.919495,994.643433 280.919495,996.861206 
	C278.165985,996.861206 275.922882,996.861206 273.501221,996.861206 
	C273.501221,983.851990 273.501221,971.107544 273.501221,958.437012 
	C278.483917,956.907959 281.739166,958.488281 284.607117,962.600830 
	C289.061066,968.987427 294.102264,974.964417 299.279510,981.609070 
	C304.296051,975.055664 309.380493,969.004395 313.758514,962.479126 
	C316.514771,958.371033 319.697113,957.140625 324.479156,958.372192 
	C324.479156,971.016418 324.479156,983.758789 324.479156,996.817383 
	C321.827820,996.817383 319.243256,996.817383 316.154114,996.817383 
	C316.154114,988.738403 316.154114,980.520386 316.154114,970.762085 
	C309.912537,978.956787 304.588348,985.947021 298.638947,993.758118 
	C292.660309,985.909973 287.181274,978.717712 280.918671,970.496765 
	C280.918671,977.432617 280.918671,983.429321 280.919067,989.914917 
z"/>
<path fill="#F4F8FA" opacity="1.000000" stroke="none" 
	d="
M406.132324,957.999023 
	C415.613922,957.999695 424.609650,957.992615 433.605347,958.001709 
	C442.669098,958.010803 444.252411,959.632385 444.242218,968.846741 
	C444.242035,969.013306 444.241241,969.179932 444.240967,969.346497 
	C444.218933,981.578674 444.218964,981.578674 431.230164,983.046509 
	C436.845795,987.700317 441.989227,991.962769 447.767853,996.751587 
	C440.752716,997.273376 434.439697,998.675110 429.779724,992.268738 
	C428.337006,990.285278 426.009430,988.966858 424.410919,987.070923 
	C420.945374,982.960327 416.779327,981.459473 411.073456,983.234131 
	C411.073456,987.493591 411.073456,992.074524 411.073456,996.874756 
	C407.834991,996.874756 405.103027,996.874756 401.946899,996.874756 
	C401.946899,984.581116 401.876526,972.460571 402.105682,960.345642 
	C402.120880,959.541199 404.413239,958.779785 406.132324,957.999023 
M425.405090,975.863525 
	C427.736786,975.838196 430.083862,975.972351 432.396545,975.749573 
	C435.746460,975.426941 435.735291,972.725220 435.252716,970.483521 
	C434.840271,968.567505 433.605804,965.352966 432.567047,965.285217 
	C425.497955,964.823975 418.384399,965.043823 411.276306,965.043823 
	C411.276306,968.905518 411.276306,972.157715 411.276306,975.300964 
	C411.846771,975.538879 412.141144,975.766174 412.438263,975.769775 
	C416.436249,975.819092 420.434570,975.837280 425.405090,975.863525 
z"/>
<path fill="#F5F9FB" opacity="1.000000" stroke="none" 
	d="
M1181.507812,958.126709 
	C1190.053589,959.554626 1196.925781,962.420593 1199.524902,971.319336 
	C1203.369141,984.481079 1195.364868,996.433777 1181.801880,996.948059 
	C1172.349976,997.306396 1162.873657,997.017029 1153.087158,997.017029 
	C1153.087158,984.004883 1153.087158,971.141235 1153.087158,958.083313 
	C1162.458496,958.083313 1171.759155,958.083313 1181.507812,958.126709 
M1190.893311,977.483887 
	C1190.343994,970.006775 1187.926025,966.343872 1181.343262,965.605042 
	C1175.014404,964.894775 1168.543335,965.451477 1161.888794,965.451477 
	C1161.888794,969.737305 1161.888794,973.715637 1161.888794,977.694031 
	C1161.888794,981.627075 1161.888794,985.560120 1161.888794,989.310974 
	C1168.429199,989.310974 1174.404907,989.733704 1180.294312,989.202148 
	C1187.387085,988.562073 1189.764038,985.707764 1190.893311,977.483887 
z"/>
<path fill="#F4F8FA" opacity="1.000000" stroke="none" 
	d="
M983.524597,982.595093 
	C981.257507,982.590759 979.434143,982.590759 977.110474,982.590759 
	C977.110474,987.411804 977.110474,991.981689 977.110474,996.829834 
	C973.886841,996.829834 971.153870,996.829834 968.155640,996.829834 
	C968.155640,984.045288 968.155640,971.300720 968.155640,958.081726 
	C979.932922,958.081726 991.705444,957.904114 1003.467346,958.178589 
	C1007.555420,958.273865 1010.236572,960.751526 1010.136597,965.313232 
	C1010.107483,966.644958 1010.150879,967.978149 1010.151550,969.310669 
	C1010.157837,981.572876 1010.157227,981.572876 997.111511,983.057190 
	C1002.765015,987.722717 1007.918030,991.975281 1013.755005,996.792236 
	C1006.690369,997.231323 1000.648682,998.469666 995.620605,992.356079 
	C992.457886,988.510620 987.900208,985.812378 983.524597,982.595093 
M978.757324,964.981323 
	C977.938232,968.411377 977.119080,971.841431 976.161133,975.852966 
	C984.193420,975.852966 990.785950,975.865356 997.378357,975.848511 
	C1001.543213,975.837830 1001.346802,972.930115 1001.399353,969.980591 
	C1001.454468,966.891724 1000.823669,964.837097 997.095276,964.926941 
	C991.305115,965.066528 985.509216,964.966003 978.757324,964.981323 
z"/>
<path fill="#F0F4F7" opacity="1.000000" stroke="none" 
	d="
M859.758484,997.117249 
	C855.269958,995.931396 851.210327,994.742249 846.314087,993.308105 
	C843.805237,996.966614 838.680908,997.514526 833.127930,997.172913 
	C829.311096,996.938049 825.467834,997.087952 821.637207,997.133301 
	C817.928833,997.177124 814.632690,996.657654 813.303040,992.433960 
	C811.729858,987.436707 812.856445,981.502197 816.168030,979.192444 
	C819.018555,977.204102 822.061218,975.491272 825.203491,973.542175 
	C824.407898,972.353455 823.549133,971.345825 822.992554,970.192261 
	C820.236389,964.479370 823.205261,958.770752 829.474060,958.141724 
	C833.268982,957.760925 837.131409,957.909973 840.957947,958.018555 
	C848.252869,958.225525 850.178345,960.595764 849.345032,968.657959 
	C847.437622,968.936584 845.393738,969.235168 843.060608,969.575989 
	C842.751587,967.894104 842.493408,966.488525 842.137390,964.550842 
	C840.165771,964.550842 838.211426,964.550903 836.257141,964.550903 
	C834.285583,964.550903 832.314026,964.550842 830.342529,964.550842 
	C830.073364,964.971863 829.804260,965.392944 829.535095,965.813965 
	C834.702026,972.188354 841.844849,976.504333 848.124023,982.397278 
	C851.183044,979.897095 854.096802,977.515625 857.298645,974.898682 
	C858.893616,976.241089 860.478271,977.574829 862.536743,979.307373 
	C859.557251,981.892395 856.871460,984.222595 853.823608,986.866943 
	C857.528015,990.089966 861.078979,993.179504 865.601074,997.114014 
	C862.995605,997.114014 861.591492,997.114014 859.758484,997.117249 
M834.307190,990.304199 
	C836.800659,989.745789 839.294128,989.187439 841.787598,988.629089 
	C841.785583,988.100281 841.783630,987.571472 841.781616,987.042664 
	C838.039001,983.910156 834.296326,980.777649 830.425659,977.537964 
	C826.526184,981.435364 818.307373,981.588989 821.342773,990.304016 
	C825.412903,990.304016 829.382629,990.304016 834.307190,990.304199 
z"/>
<path fill="#F4F8FA" opacity="1.000000" stroke="none" 
	d="
M688.729370,991.272522 
	C680.734497,984.557800 673.026794,978.058838 664.529602,970.894165 
	C664.529602,980.152527 664.529602,988.470703 664.529602,996.916260 
	C661.542419,996.916260 659.098145,996.916260 656.402710,996.916260 
	C656.402710,983.989136 656.402710,971.256775 656.402710,956.871887 
	C659.991333,958.399780 663.354431,959.080750 665.746643,960.982849 
	C675.090271,968.411987 684.126648,976.227478 693.699829,984.253601 
	C693.699829,975.487610 693.699829,967.137817 693.699829,958.391907 
	C696.569885,958.391907 699.094055,958.391907 701.860962,958.391907 
	C701.860962,971.112305 701.860962,983.844849 701.860962,996.617859 
	C695.889771,998.987427 692.761047,994.465759 688.729370,991.272522 
z"/>
<path fill="#F5F9FB" opacity="1.000000" stroke="none" 
	d="
M1087.031494,995.766968 
	C1087.002441,983.001587 1087.002441,970.719238 1087.002441,956.698181 
	C1090.798950,958.393250 1094.120728,959.160095 1096.526001,961.076965 
	C1105.852539,968.509399 1114.887451,976.307983 1124.588989,984.437866 
	C1124.588989,975.367737 1124.588989,966.894531 1124.588989,958.213745 
	C1127.460449,958.213745 1129.898193,958.213745 1132.625366,958.213745 
	C1132.625366,970.958557 1132.625366,983.688660 1132.625366,996.788086 
	C1129.003296,997.636414 1125.964600,997.028137 1122.881836,994.314880 
	C1114.028687,986.522827 1104.896973,979.046997 1095.387695,971.036682 
	C1095.387695,979.763794 1095.387695,988.075378 1095.387695,997.373108 
	C1092.246216,996.949402 1089.653442,996.599670 1087.031494,995.766968 
z"/>
<path fill="#F5F9FB" opacity="1.000000" stroke="none" 
	d="
M1267.252441,970.765259 
	C1272.809082,975.442200 1278.108643,979.872192 1283.881592,984.697876 
	C1283.881592,975.562439 1283.881592,967.012695 1283.881592,958.236023 
	C1286.601685,958.236023 1289.010986,958.236023 1291.682739,958.236023 
	C1291.682739,971.110779 1291.682739,983.837219 1291.682739,996.687073 
	C1287.808105,997.786194 1284.783203,996.895325 1281.722412,994.203674 
	C1272.876465,986.424683 1263.760132,978.953064 1254.288574,970.972046 
	C1254.288574,979.733643 1254.288574,988.081360 1254.288574,996.769531 
	C1251.349731,996.769531 1248.824341,996.769531 1246.070679,996.769531 
	C1246.070679,983.934814 1246.070679,971.202332 1246.070679,956.790527 
	C1249.685303,958.385925 1252.875488,959.261902 1255.433594,961.044800 
	C1259.508789,963.885132 1263.163086,967.329407 1267.252441,970.765259 
z"/>
<path fill="#F4F8FA" opacity="1.000000" stroke="none" 
	d="
M474.421631,972.474182 
	C478.561066,969.359924 482.429260,966.485657 486.277679,963.585144 
	C494.582581,957.325806 494.578369,957.320190 506.527557,958.368652 
	C497.906555,964.531250 489.756531,970.357239 481.054321,976.577881 
	C490.392883,983.259399 499.382965,989.691528 508.373047,996.123718 
	C502.211334,996.566772 496.084717,998.845459 490.380310,993.948059 
	C484.887421,989.232422 478.759277,985.256653 472.247131,980.468201 
	C472.247131,986.303223 472.247131,991.342224 472.247131,996.745972 
	C468.949524,996.745972 466.060608,996.745972 462.932495,996.745972 
	C462.932495,984.033325 462.932495,971.279785 462.932495,958.262268 
	C465.762573,958.262268 468.526337,958.262268 472.023041,958.262268 
	C472.023041,962.517944 471.958740,966.935669 472.115936,971.345398 
	C472.132935,971.821106 473.435272,972.251038 474.421631,972.474182 
z"/>
<path fill="#F7FBFD" opacity="1.000000" stroke="none" 
	d="
M522.858582,983.993652 
	C522.858582,975.188660 522.858582,966.883118 522.858582,958.291504 
	C536.186035,958.291504 549.264709,958.291504 562.666504,958.291504 
	C562.666504,960.278687 562.666504,962.320801 562.666504,964.867310 
	C552.541748,964.867310 542.470947,964.867310 532.162720,964.867310 
	C532.162720,967.941589 532.162720,970.521484 532.162720,973.540527 
	C538.071045,973.540527 543.832458,973.540527 549.789795,973.540527 
	C549.789795,975.885071 549.789795,977.794617 549.789795,980.154663 
	C543.878540,980.154663 538.123413,980.154663 532.152954,980.154663 
	C532.152954,983.516541 532.152954,986.429993 532.152954,989.757874 
	C542.420959,989.757874 552.512451,989.757874 562.902954,989.757874 
	C562.902954,992.243408 562.902954,994.327209 562.902954,996.767334 
	C549.872009,996.767334 536.644531,996.767334 522.858582,996.767334 
	C522.858582,992.701050 522.858582,988.597107 522.858582,983.993652 
z"/>
<path fill="#F3F7FA" opacity="1.000000" stroke="none" 
	d="
M357.202179,959.843506 
	C361.997162,956.473694 366.679932,957.399841 369.205475,961.802979 
	C375.789520,973.281860 382.386505,984.753418 389.017273,996.295593 
	C380.946625,998.280029 379.994659,997.791931 375.867126,991.358948 
	C375.087189,990.143372 373.110901,989.086060 371.643372,989.026733 
	C365.340210,988.771973 359.014893,988.770874 352.711884,989.027100 
	C351.270966,989.085632 349.037109,990.229004 348.618713,991.393982 
	C346.469696,997.377563 342.326752,998.196777 336.512573,996.557190 
	C343.384399,984.367065 350.198364,972.279724 357.202179,959.843506 
M354.672211,981.617981 
	C359.726166,981.617981 364.780090,981.617981 370.636871,981.617981 
	C367.774078,976.164978 365.235565,971.329590 362.316895,965.770203 
	C359.413849,971.286438 356.884216,976.093140 354.672211,981.617981 
z"/>
<path fill="#F3F7FA" opacity="1.000000" stroke="none" 
	d="
M1070.941040,991.027832 
	C1072.042236,993.072021 1072.988892,994.775269 1073.990967,996.578247 
	C1064.949463,997.968018 1065.030151,997.916138 1060.693237,991.173218 
	C1059.983154,990.069031 1058.237793,989.085876 1056.919189,989.015503 
	C1052.113770,988.758789 1047.257935,989.240967 1042.475098,988.824158 
	C1037.185791,988.363281 1033.649048,989.448303 1031.102295,994.824219 
	C1030.165894,996.800598 1025.453735,996.988159 1022.463867,997.991577 
	C1022.152832,997.507996 1021.841797,997.024353 1021.530762,996.540710 
	C1025.857178,988.823364 1030.175415,981.101501 1034.513428,973.390686 
	C1036.465454,969.920715 1038.573608,966.532959 1040.394287,962.996460 
	C1041.967651,959.940552 1043.433105,957.811035 1047.685669,957.768616 
	C1052.034668,957.725159 1053.332153,960.180847 1054.968018,963.055359 
	C1060.217285,972.279236 1065.510376,981.478210 1070.941040,991.027832 
M1052.939697,981.799683 
	C1053.409668,980.912537 1054.508301,979.723511 1054.250244,979.185913 
	C1052.175659,974.865784 1049.845215,970.668457 1047.269653,965.825806 
	C1044.267700,971.454285 1041.632690,976.394775 1038.749878,981.799744 
	C1043.795166,981.799744 1047.924561,981.799744 1052.939697,981.799683 
z"/>
<path fill="#F3F7FA" opacity="1.000000" stroke="none" 
	d="
M175.991028,988.914185 
	C174.500977,988.912354 173.491455,989.009399 172.506653,988.894470 
	C165.880966,988.121094 160.139618,988.843506 159.072235,996.920410 
	C155.775269,996.920410 152.996826,996.920410 149.517838,996.920410 
	C154.943558,987.280212 160.115280,978.081421 165.298706,968.889221 
	C166.439590,966.866028 167.791260,964.942932 168.746170,962.837769 
	C170.216721,959.596008 171.935379,957.793640 176.110641,957.772278 
	C180.281754,957.750977 181.467285,960.080566 183.029404,962.830139 
	C188.768433,972.931519 194.571625,982.996460 200.334244,993.084473 
	C200.967850,994.193604 201.496033,995.363037 202.184967,996.725647 
	C196.217957,997.682312 191.041702,998.032288 188.848373,991.010864 
	C188.549026,990.052551 186.679306,989.125183 185.456604,989.006165 
	C182.490524,988.717529 179.477264,988.913879 175.991028,988.914185 
M171.632980,973.108276 
	C170.172821,975.799805 168.712662,978.491333 167.109222,981.447021 
	C172.945038,981.447021 178.086258,981.447021 183.823181,981.447021 
	C180.938339,976.034973 178.334259,971.149597 175.550171,965.926575 
	C174.186722,968.402588 173.071167,970.428467 171.632980,973.108276 
z"/>
<path fill="#F7FBFD" opacity="1.000000" stroke="none" 
	d="
M581.922974,965.113647 
	C578.141113,965.113831 574.845093,965.113831 571.274658,965.113831 
	C571.274658,962.688416 571.274658,960.628540 571.274658,958.283386 
	C586.006531,958.283386 600.727234,958.283386 615.759705,958.283386 
	C615.759705,960.301025 615.759705,962.368713 615.759705,964.937134 
	C610.206482,964.937134 604.476257,964.937134 598.259521,964.937134 
	C598.259521,975.789246 598.259521,986.163269 598.259521,996.820923 
	C595.037048,996.820923 592.295776,996.820923 589.113037,996.820923 
	C589.113037,986.502808 589.113037,976.111206 589.113037,965.113403 
	C586.598083,965.113403 584.503479,965.113403 581.922974,965.113647 
z"/>
<path fill="#F3F7FA" opacity="1.000000" stroke="none" 
	d="
M636.375610,964.204224 
	C636.375366,975.283875 636.375366,985.889648 636.375366,996.806091 
	C633.345581,996.806091 630.606873,996.806091 627.518799,996.806091 
	C627.518799,984.174438 627.518799,971.480957 627.518799,958.388550 
	C630.218933,958.388550 633.088867,958.388550 636.375793,958.388550 
	C636.375793,960.127197 636.375793,961.928772 636.375610,964.204224 
z"/>
<path fill="#F5F9FB" opacity="1.000000" stroke="none" 
	d="
M224.225250,960.521545 
	C224.229065,972.902771 224.229065,984.830444 224.229065,996.885254 
	C221.094543,996.885254 218.336716,996.885254 215.348877,996.885254 
	C215.348877,983.952820 215.348877,971.245178 215.348877,958.030640 
	C218.396301,959.035950 221.987000,955.681458 224.225250,960.521545 
z"/>
<path fill="#F7FBFD" opacity="1.000000" stroke="none" 
	d="
M1226.005737,966.059509 
	C1226.005737,976.489685 1226.005737,986.429077 1226.005737,996.738647 
	C1223.112183,996.738647 1220.379639,996.738647 1217.289795,996.738647 
	C1217.289795,984.189392 1217.289795,971.358643 1217.289795,958.265381 
	C1219.976440,958.265381 1222.707031,958.265381 1226.005737,958.265381 
	C1226.005737,960.716431 1226.005737,963.142578 1226.005737,966.059509 
z"/>
<path fill="#0B1A43" opacity="1.000000" stroke="none" 
	d="
M936.552612,980.209961 
	C941.355408,980.005981 942.224426,982.484436 942.053162,986.253357 
	C941.868286,990.320618 939.160522,990.018188 936.458984,990.017639 
	C930.169373,990.016296 923.879822,990.017151 917.261475,990.017151 
	C917.261475,986.793152 917.261475,983.761353 917.261475,980.209473 
	C923.583923,980.209473 929.841187,980.209473 936.552612,980.209961 
z"/>
<path fill="#081743" opacity="1.000000" stroke="none" 
	d="
M929.950439,973.966309 
	C925.495422,973.966309 921.528503,973.966309 917.250000,973.966309 
	C917.250000,970.847107 917.250000,967.970642 917.250000,964.703796 
	C924.273560,964.703796 931.201660,964.723083 938.129578,964.695374 
	C941.370483,964.682373 941.835571,966.679016 941.819885,969.320374 
	C941.803833,972.053467 940.938293,973.883911 937.919067,973.945496 
	C935.426392,973.996277 932.932068,973.962585 929.950439,973.966309 
z"/>
<path fill="#0B1A43" opacity="1.000000" stroke="none" 
	d="
M424.918945,975.863342 
	C420.434570,975.837280 416.436249,975.819092 412.438263,975.769775 
	C412.141144,975.766174 411.846771,975.538879 411.276306,975.300964 
	C411.276306,972.157715 411.276306,968.905518 411.276306,965.043823 
	C418.384399,965.043823 425.497955,964.823975 432.567047,965.285217 
	C433.605804,965.352966 434.840271,968.567505 435.252716,970.483521 
	C435.735291,972.725220 435.746460,975.426941 432.396545,975.749573 
	C430.083862,975.972351 427.736786,975.838196 424.918945,975.863342 
z"/>
<path fill="#081743" opacity="1.000000" stroke="none" 
	d="
M1190.891602,977.896484 
	C1189.764038,985.707764 1187.387085,988.562073 1180.294312,989.202148 
	C1174.404907,989.733704 1168.429199,989.310974 1161.888794,989.310974 
	C1161.888794,985.560120 1161.888794,981.627075 1161.888794,977.694031 
	C1161.888794,973.715637 1161.888794,969.737305 1161.888794,965.451477 
	C1168.543335,965.451477 1175.014404,964.894775 1181.343262,965.605042 
	C1187.926025,966.343872 1190.343994,970.006775 1190.891602,977.896484 
z"/>
<path fill="#0B1A43" opacity="1.000000" stroke="none" 
	d="
M979.236572,964.974243 
	C985.509216,964.966003 991.305115,965.066528 997.095276,964.926941 
	C1000.823669,964.837097 1001.454468,966.891724 1001.399353,969.980591 
	C1001.346802,972.930115 1001.543213,975.837830 997.378357,975.848511 
	C990.785950,975.865356 984.193420,975.852966 976.161133,975.852966 
	C977.119080,971.841431 977.938232,968.411377 979.236572,964.974243 
z"/>
<path fill="#0B1A43" opacity="1.000000" stroke="none" 
	d="
M833.829773,990.304077 
	C829.382629,990.304016 825.412903,990.304016 821.342773,990.304016 
	C818.307373,981.588989 826.526184,981.435364 830.425659,977.537964 
	C834.296326,980.777649 838.039001,983.910156 841.781616,987.042664 
	C841.783630,987.571472 841.785583,988.100281 841.787598,988.629089 
	C839.294128,989.187439 836.800659,989.745789 833.829773,990.304077 
z"/>
<path fill="#17234A" opacity="1.000000" stroke="none" 
	d="
M354.513428,981.258911 
	C356.884216,976.093140 359.413849,971.286438 362.316895,965.770203 
	C365.235565,971.329590 367.774078,976.164978 370.636871,981.617981 
	C364.780090,981.617981 359.726166,981.617981 354.513428,981.258911 
z"/>
<path fill="#17234A" opacity="1.000000" stroke="none" 
	d="
M1052.496826,981.799683 
	C1047.924561,981.799744 1043.795166,981.799744 1038.749878,981.799744 
	C1041.632690,976.394775 1044.267700,971.454285 1047.269653,965.825806 
	C1049.845215,970.668457 1052.175659,974.865784 1054.250244,979.185913 
	C1054.508301,979.723511 1053.409668,980.912537 1052.496826,981.799683 
z"/>
<path fill="#17234A" opacity="1.000000" stroke="none" 
	d="
M171.794296,972.781250 
	C173.071167,970.428467 174.186722,968.402588 175.550171,965.926575 
	C178.334259,971.149597 180.938339,976.034973 183.823181,981.447021 
	C178.086258,981.447021 172.945038,981.447021 167.109222,981.447021 
	C168.712662,978.491333 170.172821,975.799805 171.794296,972.781250 
z"/>
</svg>